G04 Layer: TopLayer*
G04 EasyEDA v6.5.54, 2026-05-02 18:23:42*
G04 ce6f20010959444db13ed2eaba752c49,191497d34b284aa58464153ebfc4e3af,10*
G04 Gerber Generator version 0.2*
G04 Scale: 100 percent, Rotated: No, Reflected: No *
G04 Dimensions in millimeters *
G04 leading zeros omitted , absolute positions ,4 integer and 5 decimal *
%FSLAX45Y45*%
%MOMM*%

%AMMACRO1*21,1,$1,$2,0,0,$3*%
%ADD10C,0.2540*%
%ADD11C,0.3000*%
%ADD12R,0.7501X0.3000*%
%ADD13MACRO1,3.456X1.485X90.0000*%
%ADD14MACRO1,1X1.3995X0.0000*%
%ADD15R,1.0000X1.3995*%
%ADD16R,0.0112X1.3995*%
%ADD17MACRO1,3.456X1.2825X90.0000*%
%ADD18R,0.2200X0.4000*%
%ADD19R,0.4000X0.2200*%
%ADD20R,0.4000X0.2800*%
%ADD21C,0.8080*%
%ADD22C,0.6200*%

%LPD*%
D10*
X-7737729Y8331200D02*
G01*
X-5273929Y5867400D01*
X-4889500Y5867400D01*
X-4851400Y5905500D01*
X-3214928Y5905500D01*
X-7527670Y8331200D02*
G01*
X-7315200Y8331200D01*
X-5207000Y6223000D01*
X-4076700Y6223000D01*
X-3556000Y6743700D01*
X-3222292Y6743692D01*
X-3150260Y6324600D02*
G01*
X-3035300Y6439560D01*
X-3035300Y6743700D01*
X-3102302Y6743692D01*
X-3102302Y6743692D02*
G01*
X-3102302Y6793679D01*
X-3222292Y6793679D02*
G01*
X-3339279Y6793679D01*
X-3390900Y6845300D01*
X-3390900Y6985000D01*
X-3352800Y7023100D01*
X-2628900Y7023100D01*
X-3150260Y6324600D02*
G01*
X-2819400Y6324600D01*
X-2819400Y5892800D01*
X-2601671Y5892800D01*
X-2601671Y5905500D01*
D11*
X-2552700Y6718300D02*
G01*
X-2540000Y6718300D01*
X-2472994Y6718300D01*
X-2456510Y6701789D01*
X-2456510Y4651806D01*
X-2216505Y8911793D02*
G01*
X-2216505Y6861810D01*
X-2199995Y6845300D01*
X-2159000Y6845300D01*
X-2396489Y4651806D02*
G01*
X-2396489Y6721805D01*
X-2456510Y6781800D01*
X-2456510Y8911793D01*
X-2276500Y4651806D02*
G01*
X-2276500Y6761810D01*
X-2336495Y6821804D01*
X-2336495Y8911793D01*
X-2336495Y4651806D02*
G01*
X-2336495Y6741795D01*
X-2396489Y6801789D01*
X-2396489Y8911793D01*
X-2216505Y4651806D02*
G01*
X-2216505Y6781800D01*
X-2276500Y6841794D01*
X-2276500Y8911793D01*
X-2186508Y9181795D02*
G01*
X-226491Y9181795D01*
X-2186508Y9121800D02*
G01*
X-226491Y9121800D01*
X-2186508Y9061805D02*
G01*
X-226491Y9061805D01*
X-2186508Y9001785D02*
G01*
X-226491Y9001785D01*
X-2186508Y8941790D02*
G01*
X-226491Y8941790D01*
X-2186508Y4381804D02*
G01*
X-226491Y4381804D01*
X-2186508Y4441799D02*
G01*
X-226491Y4441799D01*
X-2186508Y4501794D02*
G01*
X-226491Y4501794D01*
X-2186508Y4561814D02*
G01*
X-226491Y4561814D01*
X-2186508Y4621809D02*
G01*
X-226491Y4621809D01*
X43484Y4651806D02*
G01*
X43484Y8911793D01*
X-16510Y4651806D02*
G01*
X-16510Y8911793D01*
X-76504Y4651806D02*
G01*
X-76504Y8911793D01*
X-136499Y4651806D02*
G01*
X-136499Y8911793D01*
X-196494Y4651806D02*
G01*
X-196494Y8911793D01*
D12*
G01*
X-2540000Y6718300D03*
D13*
G01*
X-2691749Y6324600D03*
G01*
X-3150250Y6324600D03*
D14*
G01*
X-7527671Y8331200D03*
D15*
G01*
X-7737729Y8331200D03*
D17*
G01*
X-2601673Y5905500D03*
G01*
X-3214926Y5905500D03*
D18*
G01*
X-3162300Y6803694D03*
D19*
G01*
X-3102305Y6793687D03*
G01*
X-3102305Y6743700D03*
G01*
X-3102305Y6693687D03*
D18*
G01*
X-3162300Y6683705D03*
D19*
G01*
X-3222294Y6693712D03*
G01*
X-3222294Y6743700D03*
D20*
G01*
X-3222294Y6793687D03*
D11*
G75*
G01*
X43510Y8911793D02*
G03*
X-226492Y9181795I-270002J0D01*
G75*
G01*
X-16510Y8911793D02*
G03*
X-226492Y9121800I-210007J0D01*
G75*
G01*
X-76505Y8911793D02*
G03*
X-226492Y9061806I-149987J26D01*
G75*
G01*
X-136500Y8911793D02*
G03*
X-226492Y9001785I-89992J0D01*
G75*
G01*
X-196494Y8911793D02*
G03*
X-226492Y8941791I-29998J0D01*
G75*
G01*
X43510Y4651807D02*
G02*
X-226492Y4381805I-270002J0D01*
G75*
G01*
X-16510Y4651807D02*
G02*
X-226492Y4441800I-210007J0D01*
G75*
G01*
X-76505Y4651807D02*
G02*
X-226492Y4501794I-149987J-26D01*
G75*
G01*
X-136500Y4651807D02*
G02*
X-226492Y4561815I-89992J0D01*
G75*
G01*
X-196494Y4651807D02*
G02*
X-226492Y4621809I-29998J0D01*
G75*
G01*
X-2456510Y4651807D02*
G03*
X-2186508Y4381805I270002J0D01*
G75*
G01*
X-2396490Y4651807D02*
G03*
X-2186508Y4441800I210007J0D01*
G75*
G01*
X-2336495Y4651807D02*
G03*
X-2186508Y4501794I149987J-26D01*
G75*
G01*
X-2276500Y4651807D02*
G03*
X-2186508Y4561815I89992J0D01*
G75*
G01*
X-2216506Y4651807D02*
G03*
X-2186508Y4621809I29998J0D01*
G75*
G01*
X-2456510Y8911793D02*
G02*
X-2186508Y9181795I270002J0D01*
G75*
G01*
X-2396490Y8911793D02*
G02*
X-2186508Y9121800I210007J0D01*
G75*
G01*
X-2336495Y8911793D02*
G02*
X-2186508Y9061806I149987J26D01*
G75*
G01*
X-2276500Y8911793D02*
G02*
X-2186508Y9001785I89992J0D01*
G75*
G01*
X-2216506Y8911793D02*
G02*
X-2186508Y8941791I29998J0D01*
D21*
G01*
X-2159000Y6845300D03*
D22*
G01*
X-2628900Y7023100D03*
G01*
X-3222294Y6743700D03*
G01*
X-3162300Y6803694D03*
M02*
