G04 Layer: TopSilkscreenLayer*
G04 EasyEDA v6.5.54, 2026-05-02 18:23:42*
G04 ce6f20010959444db13ed2eaba752c49,191497d34b284aa58464153ebfc4e3af,10*
G04 Gerber Generator version 0.2*
G04 Scale: 100 percent, Rotated: No, Reflected: No *
G04 Dimensions in millimeters *
G04 leading zeros omitted , absolute positions ,4 integer and 5 decimal *
%FSLAX45Y45*%
%MOMM*%

%ADD10C,0.2030*%
%ADD11C,0.3000*%
%ADD12C,0.2500*%
%ADD13C,0.1000*%
%ADD14C,0.1524*%
%ADD15C,0.0193*%
%ADD16C,0.2540*%

%LPD*%
G36*
X-8420811Y7962595D02*
G01*
X-8420456Y7613751D01*
X-8320887Y7613751D01*
X-8320887Y7860893D01*
X-8319109Y7862671D01*
X-7822133Y7862011D01*
X-7822133Y7363917D01*
X-8318703Y7363206D01*
X-8320836Y7366609D01*
X-8320887Y7613751D01*
X-8420456Y7613751D01*
X-8420100Y7262672D01*
X-7720888Y7262672D01*
X-7720888Y7961884D01*
G37*
G36*
X-7621676Y7962595D02*
G01*
X-7620965Y7562342D01*
X-7522464Y7560970D01*
X-7522464Y7363917D01*
X-7620965Y7362545D01*
X-7620965Y7262672D01*
X-7520431Y7261961D01*
X-7520431Y7357313D01*
X-7517028Y7361936D01*
X-7422540Y7361224D01*
X-7421219Y7062216D01*
X-7322261Y7061860D01*
X-7319264Y7063689D01*
X-7319264Y7160463D01*
X-7314996Y7162088D01*
X-7226350Y7162088D01*
X-7222083Y7160463D01*
X-7222083Y7063689D01*
X-7219492Y7062114D01*
X-7121753Y7062114D01*
X-7119467Y7064400D01*
X-7120178Y7162749D01*
X-7218730Y7164120D01*
X-7218730Y7261301D01*
X-7120178Y7262672D01*
X-7120178Y7362545D01*
X-7221423Y7362545D01*
X-7222134Y7263333D01*
X-7319264Y7263333D01*
X-7319975Y7662214D01*
X-7419187Y7662925D01*
X-7419340Y7667650D01*
X-7418984Y7762798D01*
X-7517384Y7762798D01*
X-7520533Y7766558D01*
X-7520228Y7961884D01*
G37*
G36*
X-7021017Y7962595D02*
G01*
X-7022287Y7959191D01*
X-7022998Y7863382D01*
X-7321956Y7862671D01*
X-7321956Y7763103D01*
X-7317689Y7761427D01*
X-7119518Y7761427D01*
X-7027011Y7762138D01*
X-7022287Y7761122D01*
X-7022998Y7663586D01*
X-7118807Y7663586D01*
X-7119518Y7761427D01*
X-7222083Y7761427D01*
X-7222083Y7463383D01*
X-7217816Y7461758D01*
X-7122871Y7461808D01*
X-7119518Y7463942D01*
X-7118807Y7560970D01*
X-7022338Y7561681D01*
X-7021626Y7462418D01*
X-6823964Y7461758D01*
X-6821373Y7456881D01*
X-6821373Y7067346D01*
X-6822795Y7063536D01*
X-6919722Y7063536D01*
X-6920382Y7362545D01*
X-7021626Y7362545D01*
X-7022338Y6963714D01*
X-7121499Y6963003D01*
X-7122871Y6864451D01*
X-7221423Y6863080D01*
X-7221437Y6861048D01*
X-7022287Y6861048D01*
X-7022287Y6763867D01*
X-7119518Y6763867D01*
X-7119518Y6861048D01*
X-7221437Y6861048D01*
X-7222134Y6763918D01*
X-7321296Y6763207D01*
X-7322667Y6664655D01*
X-7504234Y6663994D01*
X-7019645Y6663994D01*
X-7018934Y6760514D01*
X-6820509Y6761835D01*
X-6819798Y6960768D01*
X-6815277Y6961631D01*
X-6726021Y6961073D01*
X-6721297Y6959853D01*
X-6721398Y6763461D01*
X-6719163Y6761225D01*
X-6622084Y6760514D01*
X-6620713Y6661962D01*
X-6520840Y6661962D01*
X-6520129Y6861048D01*
X-6420916Y6861759D01*
X-6420205Y6960971D01*
X-6415532Y6961174D01*
X-6321704Y6960971D01*
X-6321704Y6865315D01*
X-6320078Y6861048D01*
X-6221780Y6861048D01*
X-6222492Y6764528D01*
X-6321044Y6763207D01*
X-6322364Y6664655D01*
X-6420916Y6663232D01*
X-6421577Y6662623D01*
X-6421586Y6661302D01*
X-6122009Y6661302D01*
X-6121247Y6567728D01*
X-6123940Y6564071D01*
X-6319672Y6564782D01*
X-6320383Y6661302D01*
X-6421586Y6661302D01*
X-6422288Y6564782D01*
X-6620713Y6563410D01*
X-6620713Y6462166D01*
X-6522161Y6460845D01*
X-6522140Y6458102D01*
X-6320383Y6458102D01*
X-6319113Y6461506D01*
X-6221831Y6461506D01*
X-6221831Y6364376D01*
X-6227876Y6362903D01*
X-6319672Y6363614D01*
X-6320383Y6458102D01*
X-6522140Y6458102D01*
X-6521450Y6366662D01*
X-6524345Y6363157D01*
X-6813753Y6363106D01*
X-6819798Y6364579D01*
X-6819798Y6461455D01*
X-6720586Y6462166D01*
X-6720586Y6663334D01*
X-7019645Y6663994D01*
X-7518196Y6663944D01*
X-7520381Y6667347D01*
X-7520431Y6756908D01*
X-7518755Y6761175D01*
X-7422184Y6761175D01*
X-7419035Y6764985D01*
X-7419187Y6861048D01*
X-7322312Y6861048D01*
X-7319264Y6864756D01*
X-7319975Y6963003D01*
X-7521092Y6963003D01*
X-7521803Y6863740D01*
X-7618679Y6863740D01*
X-7620152Y6867601D01*
X-7620304Y7061352D01*
X-7622438Y7063536D01*
X-7719517Y7064248D01*
X-7720888Y7162749D01*
X-7821422Y7163460D01*
X-7821422Y7062216D01*
X-7722209Y7061504D01*
X-7722209Y6964324D01*
X-8019186Y6964324D01*
X-8020558Y7062876D01*
X-8121091Y7063587D01*
X-8121802Y6864451D01*
X-8219643Y6863740D01*
X-8220354Y6963003D01*
X-8319566Y6963714D01*
X-8319617Y7059980D01*
X-8316163Y7062266D01*
X-8222183Y7061860D01*
X-8219643Y7064400D01*
X-8220354Y7162749D01*
X-8420811Y7163460D01*
X-8420811Y6961124D01*
X-8323173Y6961073D01*
X-8320887Y6958787D01*
X-8321132Y6857695D01*
X-7820101Y6857695D01*
X-7818831Y6861098D01*
X-7622336Y6860387D01*
X-7622336Y6764528D01*
X-7819440Y6764528D01*
X-7820101Y6857695D01*
X-8321132Y6857695D01*
X-8321365Y6761175D01*
X-8219643Y6761175D01*
X-7922006Y6760514D01*
X-7920634Y6661962D01*
X-7735773Y6661302D01*
X-7222083Y6661302D01*
X-7222083Y6564071D01*
X-7319264Y6564071D01*
X-7319264Y6661302D01*
X-7721549Y6661251D01*
X-7721549Y6564122D01*
X-7820761Y6563410D01*
X-7821464Y6465722D01*
X-7720177Y6465722D01*
X-7720177Y6559600D01*
X-7718399Y6561378D01*
X-7421880Y6561378D01*
X-7421880Y6464198D01*
X-7717485Y6464046D01*
X-7720177Y6465722D01*
X-7821464Y6465722D01*
X-7821472Y6464503D01*
X-7826146Y6463538D01*
X-7919974Y6464350D01*
X-7920634Y6563410D01*
X-8019186Y6564782D01*
X-8020659Y6663334D01*
X-8021218Y6663994D01*
X-8219643Y6663994D01*
X-8219643Y6761175D01*
X-8321365Y6761175D01*
X-8321598Y6664655D01*
X-8420100Y6663334D01*
X-8420811Y6561429D01*
X-8119770Y6561429D01*
X-8021878Y6560718D01*
X-8021167Y6464300D01*
X-8112353Y6463538D01*
X-8119770Y6464503D01*
X-8119770Y6561429D01*
X-8420811Y6561429D01*
X-8221675Y6560718D01*
X-8221014Y6366611D01*
X-8222666Y6364579D01*
X-8019897Y6364579D01*
X-8019897Y6459677D01*
X-8018018Y6461556D01*
X-7922006Y6460845D01*
X-7921300Y6366002D01*
X-7820101Y6366002D01*
X-7820101Y6459677D01*
X-7818272Y6461506D01*
X-7721498Y6461506D01*
X-7722193Y6365849D01*
X-7419441Y6365849D01*
X-7419187Y6461506D01*
X-7120178Y6462166D01*
X-7119467Y6561378D01*
X-7022338Y6561378D01*
X-7021626Y6462166D01*
X-6922414Y6461455D01*
X-6922160Y6456781D01*
X-6921753Y6362293D01*
X-6822795Y6361582D01*
X-6821322Y6355537D01*
X-6821322Y6258356D01*
X-6719976Y6258356D01*
X-6718655Y6261709D01*
X-6422288Y6261049D01*
X-6422288Y5964072D01*
X-6719265Y5964072D01*
X-6719976Y6258356D01*
X-6821322Y6258356D01*
X-6821373Y5867247D01*
X-6822795Y5863488D01*
X-6918147Y5863488D01*
X-6922566Y5861812D01*
X-6922211Y5768340D01*
X-6922414Y5763564D01*
X-7018934Y5764276D01*
X-7020306Y5862828D01*
X-7118807Y5864199D01*
X-7118807Y6061252D01*
X-6920382Y6062624D01*
X-6920382Y6262370D01*
X-7018680Y6263741D01*
X-7022287Y6261049D01*
X-7022998Y6163868D01*
X-7121499Y6162497D01*
X-7122871Y6063945D01*
X-7218730Y6063945D01*
X-7220051Y6162497D01*
X-7318603Y6163868D01*
X-7319314Y6360820D01*
X-7321854Y6363360D01*
X-7417562Y6362801D01*
X-7419441Y6365849D01*
X-7722193Y6365849D01*
X-7722209Y6363614D01*
X-7816646Y6363106D01*
X-7820101Y6366002D01*
X-7921300Y6366002D01*
X-7921294Y6365189D01*
X-7924698Y6362954D01*
X-8016087Y6363157D01*
X-8019897Y6364579D01*
X-8222666Y6364579D01*
X-8224113Y6362852D01*
X-8420100Y6363157D01*
X-8420811Y6261709D01*
X-7622336Y6261049D01*
X-7621625Y6161836D01*
X-7520431Y6161836D01*
X-7520279Y6167882D01*
X-7520381Y6357467D01*
X-7518755Y6361582D01*
X-7421880Y6361582D01*
X-7421219Y6062624D01*
X-7322667Y6061252D01*
X-7321296Y5962700D01*
X-7222744Y5961380D01*
X-7222083Y5862167D01*
X-7122210Y5862167D01*
X-7122210Y5763615D01*
X-7421219Y5762955D01*
X-7421930Y5662422D01*
X-7322667Y5661710D01*
X-7321956Y5563819D01*
X-7518196Y5563768D01*
X-7520482Y5567222D01*
X-7520025Y5661152D01*
X-7522667Y5663793D01*
X-7620965Y5663031D01*
X-7621676Y5462574D01*
X-7119518Y5462574D01*
X-7118807Y5661710D01*
X-6924598Y5662371D01*
X-6922160Y5659932D01*
X-6922414Y5462574D01*
X-6819798Y5462574D01*
X-6819798Y5662066D01*
X-6824268Y5663793D01*
X-6917436Y5663590D01*
X-6919772Y5665927D01*
X-6919061Y5761583D01*
X-6721957Y5761583D01*
X-6721729Y5665724D01*
X-6520180Y5665724D01*
X-6519468Y5761583D01*
X-6420256Y5762294D01*
X-6420256Y5860338D01*
X-6418427Y5862167D01*
X-6222492Y5861456D01*
X-6221780Y5763615D01*
X-6321044Y5762955D01*
X-6321073Y5758840D01*
X-6220510Y5758840D01*
X-6219190Y5762294D01*
X-6122619Y5761583D01*
X-6121908Y5663692D01*
X-6219799Y5664403D01*
X-6220510Y5758840D01*
X-6321073Y5758840D01*
X-6321755Y5663742D01*
X-6516522Y5663031D01*
X-6520180Y5665724D01*
X-6721729Y5665724D01*
X-6721246Y5462574D01*
X-6620052Y5462574D01*
X-6619341Y5661710D01*
X-6527546Y5662422D01*
X-6521500Y5660948D01*
X-6521500Y5562498D01*
X-6222492Y5561787D01*
X-6221780Y5462574D01*
X-5920790Y5462574D01*
X-5921451Y5563158D01*
X-6020003Y5564479D01*
X-6020003Y5761583D01*
X-5920790Y5762294D01*
X-5920790Y5863488D01*
X-6119164Y5863488D01*
X-6120638Y5869584D01*
X-6119926Y5961380D01*
X-5920790Y5962040D01*
X-5920790Y6063284D01*
X-6319672Y6063945D01*
X-6319672Y6261049D01*
X-6120638Y6261709D01*
X-6119926Y6360922D01*
X-6020663Y6361633D01*
X-6020663Y6464046D01*
X-6118148Y6463944D01*
X-6120638Y6466382D01*
X-6119926Y6560718D01*
X-6020714Y6561429D01*
X-6020003Y6660591D01*
X-5920790Y6661302D01*
X-5920790Y6763867D01*
X-6020003Y6764528D01*
X-6020714Y6863740D01*
X-6119926Y6864451D01*
X-6120638Y6958787D01*
X-6118098Y6961327D01*
X-6020663Y6961073D01*
X-6020663Y7059168D01*
X-6016853Y7062368D01*
X-5921451Y7061860D01*
X-5920790Y7163460D01*
X-6321044Y7162749D01*
X-6322364Y7064248D01*
X-6419596Y7064248D01*
X-6420307Y7163460D01*
X-6520840Y7162749D01*
X-6521551Y7062216D01*
X-6518148Y7062063D01*
X-6428841Y7062317D01*
X-6421577Y7059574D01*
X-6421582Y7058812D01*
X-6220510Y7058812D01*
X-6219240Y7062063D01*
X-6125311Y7062216D01*
X-6122009Y7060031D01*
X-6121806Y6965950D01*
X-6124143Y6963613D01*
X-6219799Y6964324D01*
X-6220510Y7058812D01*
X-6421582Y7058812D01*
X-6422288Y6964324D01*
X-6520840Y6963003D01*
X-6522161Y6864451D01*
X-6620052Y6863740D01*
X-6620052Y7063536D01*
X-6719265Y7064248D01*
X-6719925Y7463078D01*
X-6819138Y7463790D01*
X-6819138Y7560970D01*
X-6720586Y7562342D01*
X-6719874Y7662925D01*
X-6821678Y7662214D01*
X-6820966Y7570419D01*
X-6822846Y7562951D01*
X-6919061Y7563662D01*
X-6919722Y7861350D01*
X-6724345Y7861300D01*
X-6719925Y7862976D01*
X-6719925Y7962595D01*
G37*
G36*
X-6620103Y7962595D02*
G01*
X-6621424Y7959191D01*
X-6621322Y7859318D01*
X-6520180Y7859318D01*
X-6518859Y7862671D01*
X-6021374Y7862011D01*
X-6020612Y7369302D01*
X-6022086Y7363206D01*
X-6519468Y7363917D01*
X-6520180Y7859318D01*
X-6621322Y7859318D01*
X-6620713Y7262672D01*
X-5921451Y7262672D01*
X-5920790Y7962595D01*
G37*
G36*
X-8221014Y7762798D02*
G01*
X-8221014Y7461758D01*
X-7920634Y7462418D01*
X-7919974Y7762798D01*
G37*
G36*
X-6421628Y7762798D02*
G01*
X-6420916Y7462418D01*
X-6120587Y7461758D01*
X-6120587Y7762798D01*
G37*
G36*
X-7218425Y6363614D02*
G01*
X-7222134Y6360922D01*
X-7221423Y6262370D01*
X-7120178Y6262370D01*
X-7119467Y6361684D01*
X-7123074Y6363055D01*
G37*
G36*
X-8418982Y6163157D02*
G01*
X-8420811Y6161379D01*
X-8420811Y6055868D01*
X-8320989Y6055868D01*
X-8319516Y6061964D01*
X-7822133Y6061252D01*
X-7822133Y5563158D01*
X-8320227Y5563158D01*
X-8320989Y6055868D01*
X-8420811Y6055868D01*
X-8420811Y5462574D01*
X-7720888Y5463235D01*
X-7720888Y6162497D01*
G37*
G36*
X-6619595Y6163157D02*
G01*
X-6621373Y6161379D01*
X-6621373Y6061913D01*
X-6520840Y6062624D01*
X-6520129Y6163157D01*
G37*
G36*
X-7619847Y6063284D02*
G01*
X-7621676Y6061506D01*
X-7621676Y5862116D01*
X-7419848Y5862828D01*
X-7419390Y5961329D01*
X-7422540Y5963361D01*
X-7517638Y5963412D01*
X-7520584Y5968898D01*
X-7520228Y6059932D01*
X-7520431Y6063284D01*
G37*
G36*
X-8221014Y5963412D02*
G01*
X-8221014Y5662371D01*
X-7919974Y5662371D01*
X-7920634Y5962700D01*
G37*
D10*
X-8296402Y4677663D02*
G01*
X-8305545Y4695697D01*
X-8323834Y4713986D01*
X-8341868Y4723129D01*
X-8378189Y4723129D01*
X-8396478Y4713986D01*
X-8414512Y4695697D01*
X-8423655Y4677663D01*
X-8432800Y4650231D01*
X-8432800Y4604765D01*
X-8423655Y4577587D01*
X-8414512Y4559300D01*
X-8396478Y4541265D01*
X-8378189Y4532121D01*
X-8341868Y4532121D01*
X-8323834Y4541265D01*
X-8305545Y4559300D01*
X-8296402Y4577587D01*
X-8296402Y4604765D01*
X-8341868Y4604765D02*
G01*
X-8296402Y4604765D01*
X-8236458Y4723129D02*
G01*
X-8227313Y4713986D01*
X-8218170Y4723129D01*
X-8227313Y4732020D01*
X-8236458Y4723129D01*
X-8227313Y4659376D02*
G01*
X-8227313Y4532121D01*
X-8131047Y4723129D02*
G01*
X-8131047Y4568444D01*
X-8121904Y4541265D01*
X-8103615Y4532121D01*
X-8085581Y4532121D01*
X-8158226Y4659376D02*
G01*
X-8094726Y4659376D01*
X-8025637Y4723129D02*
G01*
X-8025637Y4532121D01*
X-8025637Y4623054D02*
G01*
X-7998205Y4650231D01*
X-7980171Y4659376D01*
X-7952739Y4659376D01*
X-7934705Y4650231D01*
X-7925562Y4623054D01*
X-7925562Y4532121D01*
X-7865618Y4659376D02*
G01*
X-7865618Y4568444D01*
X-7856473Y4541265D01*
X-7838186Y4532121D01*
X-7811008Y4532121D01*
X-7792720Y4541265D01*
X-7765542Y4568444D01*
X-7765542Y4659376D02*
G01*
X-7765542Y4532121D01*
X-7705597Y4723129D02*
G01*
X-7705597Y4532121D01*
X-7705597Y4632197D02*
G01*
X-7687310Y4650231D01*
X-7669276Y4659376D01*
X-7641844Y4659376D01*
X-7623810Y4650231D01*
X-7605521Y4632197D01*
X-7596378Y4604765D01*
X-7596378Y4586731D01*
X-7605521Y4559300D01*
X-7623810Y4541265D01*
X-7641844Y4532121D01*
X-7669276Y4532121D01*
X-7687310Y4541265D01*
X-7705597Y4559300D01*
X-7536434Y4613910D02*
G01*
X-7372858Y4613910D01*
X-7312913Y4723129D02*
G01*
X-7312913Y4532121D01*
X-7312913Y4623054D02*
G01*
X-7285481Y4650231D01*
X-7267447Y4659376D01*
X-7240015Y4659376D01*
X-7221981Y4650231D01*
X-7212837Y4623054D01*
X-7212837Y4532121D01*
X-7125462Y4723129D02*
G01*
X-7125462Y4568444D01*
X-7116318Y4541265D01*
X-7098284Y4532121D01*
X-7079995Y4532121D01*
X-7152894Y4659376D02*
G01*
X-7089139Y4659376D01*
X-6992873Y4723129D02*
G01*
X-6992873Y4568444D01*
X-6983729Y4541265D01*
X-6965442Y4532121D01*
X-6947408Y4532121D01*
X-7020052Y4659376D02*
G01*
X-6956552Y4659376D01*
X-6887463Y4659376D02*
G01*
X-6887463Y4468368D01*
X-6887463Y4632197D02*
G01*
X-6869176Y4650231D01*
X-6850887Y4659376D01*
X-6823710Y4659376D01*
X-6805421Y4650231D01*
X-6787387Y4632197D01*
X-6778244Y4604765D01*
X-6778244Y4586731D01*
X-6787387Y4559300D01*
X-6805421Y4541265D01*
X-6823710Y4532121D01*
X-6850887Y4532121D01*
X-6869176Y4541265D01*
X-6887463Y4559300D01*
X-6618223Y4632197D02*
G01*
X-6627368Y4650231D01*
X-6654545Y4659376D01*
X-6681978Y4659376D01*
X-6709155Y4650231D01*
X-6718300Y4632197D01*
X-6709155Y4613910D01*
X-6690868Y4604765D01*
X-6645655Y4595621D01*
X-6627368Y4586731D01*
X-6618223Y4568444D01*
X-6618223Y4559300D01*
X-6627368Y4541265D01*
X-6654545Y4532121D01*
X-6681978Y4532121D01*
X-6709155Y4541265D01*
X-6718300Y4559300D01*
X-6549136Y4641087D02*
G01*
X-6558279Y4632197D01*
X-6549136Y4623054D01*
X-6539992Y4632197D01*
X-6549136Y4641087D01*
X-6549136Y4577587D02*
G01*
X-6558279Y4568444D01*
X-6549136Y4559300D01*
X-6539992Y4568444D01*
X-6549136Y4577587D01*
X-6316471Y4759452D02*
G01*
X-6480047Y4468368D01*
X-6092697Y4759452D02*
G01*
X-6256528Y4468368D01*
X-5923787Y4659376D02*
G01*
X-5923787Y4513834D01*
X-5932678Y4486655D01*
X-5941821Y4477512D01*
X-5960110Y4468368D01*
X-5987287Y4468368D01*
X-6005576Y4477512D01*
X-5923787Y4632197D02*
G01*
X-5941821Y4650231D01*
X-5960110Y4659376D01*
X-5987287Y4659376D01*
X-6005576Y4650231D01*
X-6023610Y4632197D01*
X-6032754Y4604765D01*
X-6032754Y4586731D01*
X-6023610Y4559300D01*
X-6005576Y4541265D01*
X-5987287Y4532121D01*
X-5960110Y4532121D01*
X-5941821Y4541265D01*
X-5923787Y4559300D01*
X-5863589Y4723129D02*
G01*
X-5854700Y4713986D01*
X-5845555Y4723129D01*
X-5854700Y4732020D01*
X-5863589Y4723129D01*
X-5854700Y4659376D02*
G01*
X-5854700Y4532121D01*
X-5758179Y4723129D02*
G01*
X-5758179Y4568444D01*
X-5749289Y4541265D01*
X-5731002Y4532121D01*
X-5712713Y4532121D01*
X-5785612Y4659376D02*
G01*
X-5721857Y4659376D01*
X-5652770Y4723129D02*
G01*
X-5652770Y4532121D01*
X-5652770Y4623054D02*
G01*
X-5625592Y4650231D01*
X-5607304Y4659376D01*
X-5580126Y4659376D01*
X-5561837Y4650231D01*
X-5552694Y4623054D01*
X-5552694Y4532121D01*
X-5492750Y4659376D02*
G01*
X-5492750Y4568444D01*
X-5483605Y4541265D01*
X-5465571Y4532121D01*
X-5438139Y4532121D01*
X-5420105Y4541265D01*
X-5392928Y4568444D01*
X-5392928Y4659376D02*
G01*
X-5392928Y4532121D01*
X-5332729Y4723129D02*
G01*
X-5332729Y4532121D01*
X-5332729Y4632197D02*
G01*
X-5314695Y4650231D01*
X-5296407Y4659376D01*
X-5269229Y4659376D01*
X-5250942Y4650231D01*
X-5232907Y4632197D01*
X-5223763Y4604765D01*
X-5223763Y4586731D01*
X-5232907Y4559300D01*
X-5250942Y4541265D01*
X-5269229Y4532121D01*
X-5296407Y4532121D01*
X-5314695Y4541265D01*
X-5332729Y4559300D01*
X-5154676Y4577587D02*
G01*
X-5163820Y4568444D01*
X-5154676Y4559300D01*
X-5145531Y4568444D01*
X-5154676Y4577587D01*
X-4976368Y4632197D02*
G01*
X-4994655Y4650231D01*
X-5012689Y4659376D01*
X-5040121Y4659376D01*
X-5058155Y4650231D01*
X-5076444Y4632197D01*
X-5085587Y4604765D01*
X-5085587Y4586731D01*
X-5076444Y4559300D01*
X-5058155Y4541265D01*
X-5040121Y4532121D01*
X-5012689Y4532121D01*
X-4994655Y4541265D01*
X-4976368Y4559300D01*
X-4870957Y4659376D02*
G01*
X-4889245Y4650231D01*
X-4907279Y4632197D01*
X-4916423Y4604765D01*
X-4916423Y4586731D01*
X-4907279Y4559300D01*
X-4889245Y4541265D01*
X-4870957Y4532121D01*
X-4843779Y4532121D01*
X-4825492Y4541265D01*
X-4807457Y4559300D01*
X-4798313Y4586731D01*
X-4798313Y4604765D01*
X-4807457Y4632197D01*
X-4825492Y4650231D01*
X-4843779Y4659376D01*
X-4870957Y4659376D01*
X-4738370Y4659376D02*
G01*
X-4738370Y4532121D01*
X-4738370Y4623054D02*
G01*
X-4710937Y4650231D01*
X-4692904Y4659376D01*
X-4665471Y4659376D01*
X-4647437Y4650231D01*
X-4638294Y4623054D01*
X-4638294Y4532121D01*
X-4638294Y4623054D02*
G01*
X-4611115Y4650231D01*
X-4592828Y4659376D01*
X-4565650Y4659376D01*
X-4547362Y4650231D01*
X-4538218Y4623054D01*
X-4538218Y4532121D01*
X-4314697Y4759452D02*
G01*
X-4478273Y4468368D01*
X-4181855Y4723129D02*
G01*
X-4254500Y4532121D01*
X-4181855Y4723129D02*
G01*
X-4109212Y4532121D01*
X-4227321Y4595621D02*
G01*
X-4136389Y4595621D01*
X-4049268Y4659376D02*
G01*
X-3994657Y4532121D01*
X-3940047Y4659376D02*
G01*
X-3994657Y4532121D01*
X-3880104Y4723129D02*
G01*
X-3870960Y4713986D01*
X-3861815Y4723129D01*
X-3870960Y4732020D01*
X-3880104Y4723129D01*
X-3870960Y4659376D02*
G01*
X-3870960Y4532121D01*
X-3801871Y4659376D02*
G01*
X-3801871Y4532121D01*
X-3801871Y4604765D02*
G01*
X-3792728Y4632197D01*
X-3774694Y4650231D01*
X-3756405Y4659376D01*
X-3729228Y4659376D01*
X-3560063Y4659376D02*
G01*
X-3560063Y4532121D01*
X-3560063Y4632197D02*
G01*
X-3578352Y4650231D01*
X-3596386Y4659376D01*
X-3623818Y4659376D01*
X-3641852Y4650231D01*
X-3660139Y4632197D01*
X-3669284Y4604765D01*
X-3669284Y4586731D01*
X-3660139Y4559300D01*
X-3641852Y4541265D01*
X-3623818Y4532121D01*
X-3596386Y4532121D01*
X-3578352Y4541265D01*
X-3560063Y4559300D01*
X-3500120Y4723129D02*
G01*
X-3500120Y4532121D01*
X-3431031Y4677663D02*
G01*
X-3431031Y4686554D01*
X-3421887Y4704842D01*
X-3412744Y4713986D01*
X-3394710Y4723129D01*
X-3358387Y4723129D01*
X-3340100Y4713986D01*
X-3330955Y4704842D01*
X-3321812Y4686554D01*
X-3321812Y4668520D01*
X-3330955Y4650231D01*
X-3349244Y4623054D01*
X-3440176Y4532121D01*
X-3312921Y4532121D01*
X-3252723Y4686554D02*
G01*
X-3234689Y4695697D01*
X-3207257Y4723129D01*
X-3207257Y4532121D01*
X-3138170Y4677663D02*
G01*
X-3138170Y4686554D01*
X-3129279Y4704842D01*
X-3120136Y4713986D01*
X-3101847Y4723129D01*
X-3065526Y4723129D01*
X-3047237Y4713986D01*
X-3038347Y4704842D01*
X-3029204Y4686554D01*
X-3029204Y4668520D01*
X-3038347Y4650231D01*
X-3056381Y4623054D01*
X-3147313Y4532121D01*
X-3020060Y4532121D01*
X-2905505Y4723129D02*
G01*
X-2932684Y4713986D01*
X-2950971Y4686554D01*
X-2960115Y4641087D01*
X-2960115Y4613910D01*
X-2950971Y4568444D01*
X-2932684Y4541265D01*
X-2905505Y4532121D01*
X-2887471Y4532121D01*
X-2860039Y4541265D01*
X-2842005Y4568444D01*
X-2832862Y4613910D01*
X-2832862Y4641087D01*
X-2842005Y4686554D01*
X-2860039Y4713986D01*
X-2887471Y4723129D01*
X-2905505Y4723129D01*
X-2772918Y4686554D02*
G01*
X-2754629Y4695697D01*
X-2727452Y4723129D01*
X-2727452Y4532121D01*
X-2667254Y4686554D02*
G01*
X-2649220Y4695697D01*
X-2621787Y4723129D01*
X-2621787Y4532121D01*
D11*
X-8225536Y9102344D02*
G01*
X-8407400Y8625078D01*
X-8225536Y9102344D02*
G01*
X-8043671Y8625078D01*
X-8339328Y8784336D02*
G01*
X-8111997Y8784336D01*
X-7893812Y9102344D02*
G01*
X-7711947Y8625078D01*
X-7530084Y9102344D02*
G01*
X-7711947Y8625078D01*
X-7380223Y9102344D02*
G01*
X-7380223Y8625078D01*
X-7230110Y9102344D02*
G01*
X-7230110Y8625078D01*
X-7230110Y9102344D02*
G01*
X-7025639Y9102344D01*
X-6957313Y9079737D01*
X-6934708Y9056878D01*
X-6911847Y9011412D01*
X-6911847Y8966200D01*
X-6934708Y8920734D01*
X-6957313Y8897874D01*
X-7025639Y8875268D01*
X-7230110Y8875268D01*
X-7071105Y8875268D02*
G01*
X-6911847Y8625078D01*
X-6580123Y9102344D02*
G01*
X-6761987Y8625078D01*
X-6580123Y9102344D02*
G01*
X-6398260Y8625078D01*
X-6693662Y8784336D02*
G01*
X-6466586Y8784336D01*
X-6248400Y9102344D02*
G01*
X-6248400Y8625078D01*
X-6248400Y8625078D02*
G01*
X-5975604Y8625078D01*
X-5825489Y8761476D02*
G01*
X-5825489Y8806942D01*
X-5802884Y8875268D01*
X-5757418Y8897874D01*
X-5711952Y8897874D01*
X-5666486Y8875268D01*
X-5575554Y8806942D01*
X-5530087Y8784336D01*
X-5484621Y8784336D01*
X-5439155Y8806942D01*
X-5416550Y8852408D01*
X-5825489Y8806942D02*
G01*
X-5802884Y8852408D01*
X-5757418Y8875268D01*
X-5711952Y8875268D01*
X-5666486Y8852408D01*
X-5575554Y8784336D01*
X-5530087Y8761476D01*
X-5484621Y8761476D01*
X-5439155Y8784336D01*
X-5416550Y8852408D01*
X-5416550Y8897874D01*
D12*
X-8296402Y5033263D02*
G01*
X-8305545Y5051297D01*
X-8323834Y5069586D01*
X-8341868Y5078729D01*
X-8378189Y5078729D01*
X-8396478Y5069586D01*
X-8414512Y5051297D01*
X-8423655Y5033263D01*
X-8432800Y5005831D01*
X-8432800Y4960365D01*
X-8423655Y4933187D01*
X-8414512Y4914900D01*
X-8396478Y4896865D01*
X-8378189Y4887721D01*
X-8341868Y4887721D01*
X-8323834Y4896865D01*
X-8305545Y4914900D01*
X-8296402Y4933187D01*
X-8296402Y4960365D01*
X-8341868Y4960365D02*
G01*
X-8296402Y4960365D01*
X-8236458Y5014976D02*
G01*
X-8236458Y4887721D01*
X-8236458Y4978654D02*
G01*
X-8209279Y5005831D01*
X-8190992Y5014976D01*
X-8163813Y5014976D01*
X-8145526Y5005831D01*
X-8136381Y4978654D01*
X-8136381Y4887721D01*
X-8136381Y4978654D02*
G01*
X-8109204Y5005831D01*
X-8090915Y5014976D01*
X-8063737Y5014976D01*
X-8045450Y5005831D01*
X-8036560Y4978654D01*
X-8036560Y4887721D01*
X-7867395Y5014976D02*
G01*
X-7867395Y4887721D01*
X-7867395Y4987797D02*
G01*
X-7885429Y5005831D01*
X-7903718Y5014976D01*
X-7930895Y5014976D01*
X-7949184Y5005831D01*
X-7967471Y4987797D01*
X-7976362Y4960365D01*
X-7976362Y4942331D01*
X-7967471Y4914900D01*
X-7949184Y4896865D01*
X-7930895Y4887721D01*
X-7903718Y4887721D01*
X-7885429Y4896865D01*
X-7867395Y4914900D01*
X-7807452Y5078729D02*
G01*
X-7798308Y5069586D01*
X-7789163Y5078729D01*
X-7798308Y5087620D01*
X-7807452Y5078729D01*
X-7798308Y5014976D02*
G01*
X-7798308Y4887721D01*
X-7729220Y5078729D02*
G01*
X-7729220Y4887721D01*
X-7669276Y4969510D02*
G01*
X-7505445Y4969510D01*
X-7345426Y4987797D02*
G01*
X-7354570Y5005831D01*
X-7382002Y5014976D01*
X-7409179Y5014976D01*
X-7436358Y5005831D01*
X-7445502Y4987797D01*
X-7436358Y4969510D01*
X-7418323Y4960365D01*
X-7372858Y4951221D01*
X-7354570Y4942331D01*
X-7345426Y4924044D01*
X-7345426Y4914900D01*
X-7354570Y4896865D01*
X-7382002Y4887721D01*
X-7409179Y4887721D01*
X-7436358Y4896865D01*
X-7445502Y4914900D01*
X-7285481Y4960365D02*
G01*
X-7176515Y4960365D01*
X-7176515Y4978654D01*
X-7185405Y4996687D01*
X-7194550Y5005831D01*
X-7212837Y5014976D01*
X-7240015Y5014976D01*
X-7258304Y5005831D01*
X-7276337Y4987797D01*
X-7285481Y4960365D01*
X-7285481Y4942331D01*
X-7276337Y4914900D01*
X-7258304Y4896865D01*
X-7240015Y4887721D01*
X-7212837Y4887721D01*
X-7194550Y4896865D01*
X-7176515Y4914900D01*
X-7116318Y5014976D02*
G01*
X-7116318Y4887721D01*
X-7116318Y4978654D02*
G01*
X-7089139Y5005831D01*
X-7071105Y5014976D01*
X-7043673Y5014976D01*
X-7025639Y5005831D01*
X-7016495Y4978654D01*
X-7016495Y4887721D01*
X-6956552Y5078729D02*
G01*
X-6956552Y4887721D01*
X-6956552Y4987797D02*
G01*
X-6938263Y5005831D01*
X-6919976Y5014976D01*
X-6892797Y5014976D01*
X-6874510Y5005831D01*
X-6856476Y4987797D01*
X-6847331Y4960365D01*
X-6847331Y4942331D01*
X-6856476Y4914900D01*
X-6874510Y4896865D01*
X-6892797Y4887721D01*
X-6919976Y4887721D01*
X-6938263Y4896865D01*
X-6956552Y4914900D01*
X-6787387Y5014976D02*
G01*
X-6787387Y4823968D01*
X-6787387Y4987797D02*
G01*
X-6769100Y5005831D01*
X-6751065Y5014976D01*
X-6723634Y5014976D01*
X-6705600Y5005831D01*
X-6687312Y4987797D01*
X-6678168Y4960365D01*
X-6678168Y4942331D01*
X-6687312Y4914900D01*
X-6705600Y4896865D01*
X-6723634Y4887721D01*
X-6751065Y4887721D01*
X-6769100Y4896865D01*
X-6787387Y4914900D01*
X-6618223Y5042154D02*
G01*
X-6600189Y5051297D01*
X-6572758Y5078729D01*
X-6572758Y4887721D01*
X-6403594Y5078729D02*
G01*
X-6494526Y5078729D01*
X-6503670Y4996687D01*
X-6494526Y5005831D01*
X-6467347Y5014976D01*
X-6440170Y5014976D01*
X-6412737Y5005831D01*
X-6394704Y4987797D01*
X-6385560Y4960365D01*
X-6385560Y4942331D01*
X-6394704Y4914900D01*
X-6412737Y4896865D01*
X-6440170Y4887721D01*
X-6467347Y4887721D01*
X-6494526Y4896865D01*
X-6503670Y4906010D01*
X-6512813Y4924044D01*
X-6189218Y5005831D02*
G01*
X-6198362Y5024120D01*
X-6216395Y5033263D01*
X-6243828Y5033263D01*
X-6261862Y5024120D01*
X-6271005Y5014976D01*
X-6280150Y4987797D01*
X-6280150Y4960365D01*
X-6271005Y4942331D01*
X-6252718Y4933187D01*
X-6225539Y4933187D01*
X-6207252Y4942331D01*
X-6198362Y4960365D01*
X-6243828Y5033263D02*
G01*
X-6261862Y5014976D01*
X-6271005Y4987797D01*
X-6271005Y4960365D01*
X-6261862Y4942331D01*
X-6252718Y4933187D01*
X-6189218Y5033263D02*
G01*
X-6198362Y4960365D01*
X-6198362Y4942331D01*
X-6180073Y4933187D01*
X-6161786Y4933187D01*
X-6143752Y4951221D01*
X-6134607Y4978654D01*
X-6134607Y4996687D01*
X-6143752Y5024120D01*
X-6152895Y5042154D01*
X-6170929Y5060442D01*
X-6189218Y5069586D01*
X-6216395Y5078729D01*
X-6243828Y5078729D01*
X-6271005Y5069586D01*
X-6289294Y5060442D01*
X-6307328Y5042154D01*
X-6316471Y5024120D01*
X-6325615Y4996687D01*
X-6325615Y4969510D01*
X-6316471Y4942331D01*
X-6307328Y4924044D01*
X-6289294Y4906010D01*
X-6271005Y4896865D01*
X-6243828Y4887721D01*
X-6216395Y4887721D01*
X-6189218Y4896865D01*
X-6170929Y4906010D01*
X-6161786Y4914900D01*
X-6180073Y5033263D02*
G01*
X-6189218Y4960365D01*
X-6189218Y4942331D01*
X-6180073Y4933187D01*
X-5965444Y5014976D02*
G01*
X-5965444Y4869434D01*
X-5974587Y4842255D01*
X-5983731Y4833112D01*
X-6002020Y4823968D01*
X-6029197Y4823968D01*
X-6047231Y4833112D01*
X-5965444Y4987797D02*
G01*
X-5983731Y5005831D01*
X-6002020Y5014976D01*
X-6029197Y5014976D01*
X-6047231Y5005831D01*
X-6065520Y4987797D01*
X-6074663Y4960365D01*
X-6074663Y4942331D01*
X-6065520Y4914900D01*
X-6047231Y4896865D01*
X-6029197Y4887721D01*
X-6002020Y4887721D01*
X-5983731Y4896865D01*
X-5965444Y4914900D01*
X-5905500Y5014976D02*
G01*
X-5905500Y4887721D01*
X-5905500Y4978654D02*
G01*
X-5878321Y5005831D01*
X-5860034Y5014976D01*
X-5832855Y5014976D01*
X-5814568Y5005831D01*
X-5805423Y4978654D01*
X-5805423Y4887721D01*
X-5805423Y4978654D02*
G01*
X-5778245Y5005831D01*
X-5759957Y5014976D01*
X-5732779Y5014976D01*
X-5714745Y5005831D01*
X-5705602Y4978654D01*
X-5705602Y4887721D01*
X-5536437Y5014976D02*
G01*
X-5536437Y4887721D01*
X-5536437Y4987797D02*
G01*
X-5554726Y5005831D01*
X-5572760Y5014976D01*
X-5600192Y5014976D01*
X-5618226Y5005831D01*
X-5636513Y4987797D01*
X-5645657Y4960365D01*
X-5645657Y4942331D01*
X-5636513Y4914900D01*
X-5618226Y4896865D01*
X-5600192Y4887721D01*
X-5572760Y4887721D01*
X-5554726Y4896865D01*
X-5536437Y4914900D01*
X-5476494Y5078729D02*
G01*
X-5467350Y5069586D01*
X-5458205Y5078729D01*
X-5467350Y5087620D01*
X-5476494Y5078729D01*
X-5467350Y5014976D02*
G01*
X-5467350Y4887721D01*
X-5398262Y5078729D02*
G01*
X-5398262Y4887721D01*
X-5329173Y4933187D02*
G01*
X-5338318Y4924044D01*
X-5329173Y4914900D01*
X-5320029Y4924044D01*
X-5329173Y4933187D01*
X-5150865Y4987797D02*
G01*
X-5169154Y5005831D01*
X-5187442Y5014976D01*
X-5214620Y5014976D01*
X-5232907Y5005831D01*
X-5250942Y4987797D01*
X-5260086Y4960365D01*
X-5260086Y4942331D01*
X-5250942Y4914900D01*
X-5232907Y4896865D01*
X-5214620Y4887721D01*
X-5187442Y4887721D01*
X-5169154Y4896865D01*
X-5150865Y4914900D01*
X-5045455Y5014976D02*
G01*
X-5063744Y5005831D01*
X-5081778Y4987797D01*
X-5090921Y4960365D01*
X-5090921Y4942331D01*
X-5081778Y4914900D01*
X-5063744Y4896865D01*
X-5045455Y4887721D01*
X-5018278Y4887721D01*
X-4999989Y4896865D01*
X-4981955Y4914900D01*
X-4972812Y4942331D01*
X-4972812Y4960365D01*
X-4981955Y4987797D01*
X-4999989Y5005831D01*
X-5018278Y5014976D01*
X-5045455Y5014976D01*
X-4912868Y5014976D02*
G01*
X-4912868Y4887721D01*
X-4912868Y4978654D02*
G01*
X-4885436Y5005831D01*
X-4867402Y5014976D01*
X-4839970Y5014976D01*
X-4821936Y5005831D01*
X-4812792Y4978654D01*
X-4812792Y4887721D01*
X-4812792Y4978654D02*
G01*
X-4785613Y5005831D01*
X-4767326Y5014976D01*
X-4740147Y5014976D01*
X-4721860Y5005831D01*
X-4712715Y4978654D01*
X-4712715Y4887721D01*
D13*
X-5756655Y7681976D02*
G01*
X-5829300Y7641081D01*
X-5756655Y7599934D01*
X-5726684Y7641081D02*
G01*
X-5644642Y7641081D01*
X-5526531Y7695437D02*
G01*
X-5521960Y7690865D01*
X-5517387Y7695437D01*
X-5521960Y7700010D01*
X-5526531Y7695437D01*
X-5521960Y7663687D02*
G01*
X-5521960Y7586471D01*
X-5526531Y7572755D01*
X-5535676Y7568184D01*
X-5544820Y7568184D01*
X-5487415Y7663687D02*
G01*
X-5487415Y7618221D01*
X-5482844Y7604505D01*
X-5473954Y7599934D01*
X-5460237Y7599934D01*
X-5451094Y7604505D01*
X-5437378Y7618221D01*
X-5437378Y7663687D02*
G01*
X-5437378Y7599934D01*
X-5357368Y7649971D02*
G01*
X-5361939Y7659115D01*
X-5375655Y7663687D01*
X-5389371Y7663687D01*
X-5402834Y7659115D01*
X-5407405Y7649971D01*
X-5402834Y7641081D01*
X-5393944Y7636510D01*
X-5371084Y7631937D01*
X-5361939Y7627365D01*
X-5357368Y7618221D01*
X-5357368Y7613650D01*
X-5361939Y7604505D01*
X-5375655Y7599934D01*
X-5389371Y7599934D01*
X-5402834Y7604505D01*
X-5407405Y7613650D01*
X-5313934Y7695437D02*
G01*
X-5313934Y7618221D01*
X-5309362Y7604505D01*
X-5300218Y7599934D01*
X-5291073Y7599934D01*
X-5327395Y7663687D02*
G01*
X-5295645Y7663687D01*
X-5141213Y7649971D02*
G01*
X-5145786Y7659115D01*
X-5159247Y7663687D01*
X-5172963Y7663687D01*
X-5186679Y7659115D01*
X-5190997Y7649971D01*
X-5186679Y7641081D01*
X-5177536Y7636510D01*
X-5154676Y7631937D01*
X-5145786Y7627365D01*
X-5141213Y7618221D01*
X-5141213Y7613650D01*
X-5145786Y7604505D01*
X-5159247Y7599934D01*
X-5172963Y7599934D01*
X-5186679Y7604505D01*
X-5190997Y7613650D01*
X-5056631Y7649971D02*
G01*
X-5065776Y7659115D01*
X-5074665Y7663687D01*
X-5088381Y7663687D01*
X-5097526Y7659115D01*
X-5106670Y7649971D01*
X-5111242Y7636510D01*
X-5111242Y7627365D01*
X-5106670Y7613650D01*
X-5097526Y7604505D01*
X-5088381Y7599934D01*
X-5074665Y7599934D01*
X-5065776Y7604505D01*
X-5056631Y7613650D01*
X-4972050Y7663687D02*
G01*
X-4972050Y7599934D01*
X-4972050Y7649971D02*
G01*
X-4981194Y7659115D01*
X-4990084Y7663687D01*
X-5003800Y7663687D01*
X-5012944Y7659115D01*
X-5022087Y7649971D01*
X-5026660Y7636510D01*
X-5026660Y7627365D01*
X-5022087Y7613650D01*
X-5012944Y7604505D01*
X-5003800Y7599934D01*
X-4990084Y7599934D01*
X-4981194Y7604505D01*
X-4972050Y7613650D01*
X-4942078Y7663687D02*
G01*
X-4942078Y7599934D01*
X-4942078Y7645400D02*
G01*
X-4928362Y7659115D01*
X-4919218Y7663687D01*
X-4905755Y7663687D01*
X-4896612Y7659115D01*
X-4892039Y7645400D01*
X-4892039Y7599934D01*
X-4778502Y7695437D02*
G01*
X-4778502Y7618221D01*
X-4773929Y7604505D01*
X-4764786Y7599934D01*
X-4755642Y7599934D01*
X-4791963Y7663687D02*
G01*
X-4760213Y7663687D01*
X-4725670Y7695437D02*
G01*
X-4725670Y7599934D01*
X-4725670Y7645400D02*
G01*
X-4711954Y7659115D01*
X-4703063Y7663687D01*
X-4689347Y7663687D01*
X-4680204Y7659115D01*
X-4675631Y7645400D01*
X-4675631Y7599934D01*
X-4645660Y7695437D02*
G01*
X-4641087Y7690865D01*
X-4636515Y7695437D01*
X-4641087Y7700010D01*
X-4645660Y7695437D01*
X-4641087Y7663687D02*
G01*
X-4641087Y7599934D01*
X-4556505Y7649971D02*
G01*
X-4561078Y7659115D01*
X-4574794Y7663687D01*
X-4588510Y7663687D01*
X-4601971Y7659115D01*
X-4606544Y7649971D01*
X-4601971Y7641081D01*
X-4592828Y7636510D01*
X-4570221Y7631937D01*
X-4561078Y7627365D01*
X-4556505Y7618221D01*
X-4556505Y7613650D01*
X-4561078Y7604505D01*
X-4574794Y7599934D01*
X-4588510Y7599934D01*
X-4601971Y7604505D01*
X-4606544Y7613650D01*
X-4526534Y7627365D02*
G01*
X-4526534Y7636510D01*
X-4521962Y7649971D01*
X-4512818Y7654544D01*
X-4503928Y7654544D01*
X-4494784Y7649971D01*
X-4476495Y7636510D01*
X-4467605Y7631937D01*
X-4458462Y7631937D01*
X-4449318Y7636510D01*
X-4444745Y7645400D01*
X-4526534Y7636510D02*
G01*
X-4521962Y7645400D01*
X-4512818Y7649971D01*
X-4503928Y7649971D01*
X-4494784Y7645400D01*
X-4476495Y7631937D01*
X-4467605Y7627365D01*
X-4458462Y7627365D01*
X-4449318Y7631937D01*
X-4444745Y7645400D01*
X-4444745Y7654544D01*
D14*
X-2697987Y6781800D02*
G01*
X-2703321Y6792213D01*
X-2718815Y6807708D01*
X-2609850Y6807708D01*
X-2843021Y6642608D02*
G01*
X-2848355Y6653021D01*
X-2858770Y6663436D01*
X-2868929Y6668515D01*
X-2889757Y6668515D01*
X-2900171Y6663436D01*
X-2910586Y6653021D01*
X-2915920Y6642608D01*
X-2921000Y6626860D01*
X-2921000Y6600952D01*
X-2915920Y6585458D01*
X-2910586Y6575044D01*
X-2900171Y6564629D01*
X-2889757Y6559550D01*
X-2868929Y6559550D01*
X-2858770Y6564629D01*
X-2848355Y6575044D01*
X-2843021Y6585458D01*
X-2808731Y6647687D02*
G01*
X-2798318Y6653021D01*
X-2782823Y6668515D01*
X-2782823Y6559550D01*
X-7608951Y8089011D02*
G01*
X-7608951Y8197977D01*
X-7608951Y8197977D02*
G01*
X-7671180Y8197977D01*
X-7705470Y8089011D02*
G01*
X-7705470Y8197977D01*
X-7705470Y8089011D02*
G01*
X-7773035Y8089011D01*
X-7705470Y8140827D02*
G01*
X-7747127Y8140827D01*
X-7705470Y8197977D02*
G01*
X-7773035Y8197977D01*
X-7807325Y8089011D02*
G01*
X-7807325Y8197977D01*
X-7807325Y8089011D02*
G01*
X-7843901Y8089011D01*
X-7859395Y8094090D01*
X-7869809Y8104504D01*
X-7874888Y8114919D01*
X-7880222Y8130667D01*
X-7880222Y8156575D01*
X-7874888Y8172069D01*
X-7869809Y8182483D01*
X-7859395Y8192896D01*
X-7843901Y8197977D01*
X-7807325Y8197977D01*
X-7914512Y8109838D02*
G01*
X-7924927Y8104504D01*
X-7940420Y8089011D01*
X-7940420Y8197977D01*
X-2908300Y6249415D02*
G01*
X-2908300Y6140450D01*
X-2908300Y6249415D02*
G01*
X-2861563Y6249415D01*
X-2846070Y6244336D01*
X-2840736Y6239002D01*
X-2835655Y6228587D01*
X-2835655Y6218173D01*
X-2840736Y6207760D01*
X-2846070Y6202679D01*
X-2861563Y6197600D01*
X-2908300Y6197600D01*
X-2871978Y6197600D02*
G01*
X-2835655Y6140450D01*
X-2801365Y6228587D02*
G01*
X-2790952Y6233921D01*
X-2775204Y6249415D01*
X-2775204Y6140450D01*
X-3204359Y6989996D02*
G01*
X-3204359Y6912018D01*
X-3199279Y6896524D01*
X-3188865Y6886110D01*
X-3173117Y6881030D01*
X-3162703Y6881030D01*
X-3147209Y6886110D01*
X-3136795Y6896524D01*
X-3131715Y6912018D01*
X-3131715Y6989996D01*
X-3097425Y6969168D02*
G01*
X-3087011Y6974502D01*
X-3071263Y6989996D01*
X-3071263Y6881030D01*
X-2609880Y6520258D02*
G01*
X-2758379Y6520258D01*
X-2758379Y6128941D02*
G01*
X-2609880Y6128941D01*
X-2594640Y6144181D02*
G01*
X-2594640Y6505018D01*
X-3232119Y6520258D02*
G01*
X-3083620Y6520258D01*
X-3083620Y6128941D02*
G01*
X-3232119Y6128941D01*
X-3247359Y6144181D02*
G01*
X-3247359Y6505018D01*
D16*
X-7652699Y8281200D02*
G01*
X-7612700Y8321200D01*
X-7602700Y8331200D01*
X-7612700Y8341225D01*
X-7652699Y8381225D01*
X-7652699Y8281200D02*
G01*
X-7652699Y8381225D01*
X-7677022Y8432927D02*
G01*
X-7831962Y8432927D01*
X-7831962Y8229727D01*
X-7677022Y8229727D01*
X-7598283Y8435467D02*
G01*
X-7450962Y8435467D01*
X-7410322Y8394827D01*
X-7410322Y8267827D01*
X-7448422Y8229727D01*
X-7600822Y8229727D01*
D14*
X-2658181Y5709841D02*
G01*
X-2514686Y5709841D01*
X-2514686Y6101158D01*
X-2658181Y6101158D01*
X-3158418Y5709841D02*
G01*
X-3301913Y5709841D01*
X-3301913Y6101158D01*
X-3158418Y6101158D01*
D16*
X-3062287Y6657893D02*
G01*
X-3062287Y6643705D01*
X-3129780Y6843707D02*
G01*
X-3062287Y6843707D01*
X-3062287Y6829511D01*
X-3262287Y6829511D02*
G01*
X-3262287Y6843707D01*
X-3194789Y6843707D01*
X-3262287Y6643705D02*
G01*
X-3262287Y6657893D01*
X-3194789Y6643705D02*
G01*
X-3262287Y6643705D01*
X-3062287Y6643705D02*
G01*
X-3129780Y6643705D01*
D14*
G75*
G01*
X-2609880Y6128941D02*
G03*
X-2594640Y6144181I0J15240D01*
G75*
G01*
X-2594640Y6505019D02*
G03*
X-2609880Y6520259I-15240J0D01*
G75*
G01*
X-3232120Y6128941D02*
G02*
X-3247360Y6144181I0J15240D01*
G75*
G01*
X-3247360Y6505019D02*
G02*
X-3232120Y6520259I15240J0D01*
D16*
G75*
G01
X-3282950Y6794475D02*
G03X-3282950Y6794475I-6350J0D01*
M02*
